<svg width="14" height="14" viewBox="0 0 14 14" fill="none" xmlns="http://www.w3.org/2000/svg">
<path fill-rule="evenodd" clip-rule="evenodd" d="M1.97852 7.07057C1.97852 6.74682 2.24096 6.48438 2.56471 6.48438L12.9614 6.48438C13.2851 6.48438 13.5476 6.74683 13.5476 7.07057C13.5476 7.39432 13.2851 7.65676 12.9614 7.65676L2.56471 7.65676C2.24096 7.65676 1.97852 7.39432 1.97852 7.07057Z" fill="black"/>
<path fill-rule="evenodd" clip-rule="evenodd" d="M7.35059 12.9533C7.57953 12.7244 7.57956 12.3533 7.35065 12.1243L2.29013 7.06297L7.35066 2.0016C7.57956 1.77266 7.57953 1.4015 7.35059 1.1726C7.12164 0.943696 6.75049 0.943727 6.52158 1.17267L1.04666 6.6485C0.817781 6.87742 0.817781 7.24852 1.04666 7.47744L6.52158 12.9533C6.75049 13.1822 7.12164 13.1822 7.35059 12.9533Z" fill="black"/>
</svg>
