<svg width="40" height="41" viewBox="0 0 40 41" fill="none" xmlns="http://www.w3.org/2000/svg">
<circle cx="20" cy="20.5117" r="20" fill="white"/>
<path fill-rule="evenodd" clip-rule="evenodd" d="M26.2227 20.5742C26.2227 20.9442 25.9227 21.2441 25.5527 21.2441L13.6708 21.2441C13.3008 21.2441 13.0009 20.9442 13.0009 20.5742C13.0009 20.2042 13.3008 19.9043 13.6708 19.9043L25.5527 19.9043C25.9227 19.9043 26.2227 20.2042 26.2227 20.5742Z" fill="black"/>
<path fill-rule="evenodd" clip-rule="evenodd" d="M20.0818 13.8524C19.8201 14.114 19.8201 14.5382 20.0817 14.7999L25.8651 20.5843L20.0817 26.3687C19.8201 26.6304 19.8201 27.0545 20.0818 27.3161C20.3434 27.5777 20.7676 27.5777 21.0292 27.3161L27.2862 21.058C27.5478 20.7963 27.5478 20.3722 27.2862 20.1106L21.0292 13.8525C20.7676 13.5909 20.3434 13.5908 20.0818 13.8524Z" fill="black"/>
</svg>
