<svg width="17" height="17" viewBox="0 0 17 17" fill="none" xmlns="http://www.w3.org/2000/svg">
<path fill-rule="evenodd" clip-rule="evenodd" d="M13.9349 3.04783C14.1732 3.28609 14.1732 3.67239 13.9349 3.91064L3.52392 14.3216C3.28567 14.5599 2.89937 14.5599 2.66112 14.3216C2.42286 14.0834 2.42286 13.6971 2.66112 13.4588L13.0721 3.04783C13.3104 2.80958 13.6967 2.80958 13.9349 3.04783Z" fill="white"/>
<path fill-rule="evenodd" clip-rule="evenodd" d="M2.48242 3.09252C2.48242 2.75557 2.75557 2.48242 3.09252 2.48242H13.8891C14.2261 2.48242 14.4992 2.75557 14.4992 3.09252V13.8891C14.4992 14.2261 14.2261 14.4992 13.8891 14.4992C13.5522 14.4992 13.279 14.2261 13.279 13.8891V3.70262H3.09252C2.75557 3.70262 2.48242 3.42947 2.48242 3.09252Z" fill="white"/>
</svg>
