<svg width="68" height="25" viewBox="0 0 68 25" fill="none" xmlns="http://www.w3.org/2000/svg">
<rect x="0.519653" y="0.994141" width="67.2901" height="24" rx="2" fill="#A7CFBC"/>
<path d="M15.7383 9.95567C15.9207 10.0278 16.0865 10.1362 16.2256 10.2743C16.3648 10.4125 16.4744 10.5775 16.5477 10.7594C16.6333 10.9646 16.6764 11.185 16.6744 11.4073V12.631C16.6744 13.0538 16.5688 13.3927 16.3578 13.6479C16.1569 13.897 15.8797 14.0732 15.5688 14.1493L16.6891 16.9941H15.0827L13.8296 14.1936H9.09893V16.9941H7.51965V9.84521H15.1851C15.3749 9.84592 15.5628 9.88343 15.7383 9.95567ZM9.09893 12.631H14.5371C14.6735 12.6338 14.8082 12.601 14.928 12.5357C15.041 12.4723 15.0975 12.3421 15.0975 12.1453V11.983C15.0975 11.7767 15.0459 11.6292 14.9428 11.5407C14.8396 11.4521 14.6995 11.4077 14.5223 11.4073H9.09893V12.631Z" fill="white"/>
<path d="M23.747 15.4315L22.9795 16.9941H18.1407V9.84521H26.6603L25.8509 11.4078H19.7176V12.631H25.2144L24.405 14.1936H19.7176V15.4315H23.747Z" fill="white"/>
<path d="M35.3371 12.5653H29.2214L31.0169 9.1268H35.3371V12.5653ZM36.9878 7.70036C36.964 7.6637 36.8973 7.50087 36.7383 7.48897C36.7164 7.48897 36.7069 7.47706 36.7088 7.47611H30.4203C30.3635 7.47526 30.3075 7.48926 30.2578 7.51674C30.2081 7.54422 30.1665 7.58421 30.137 7.63275C30.1046 7.68941 30.0218 7.84177 30.0218 7.84177L25.2754 16.9841H26.9151L26.9242 16.9675V16.9841L27.067 16.7099L28.4316 14.246H35.3352V16.9841H36.9878V7.70036Z" fill="white"/>
<path d="M38.6738 16.9553V15.6255H45.8913V14.1201H39.1171C39.0727 14.1185 39.0292 14.107 38.99 14.0863C38.9282 14.0568 38.871 14.0186 38.82 13.9729C38.7727 13.9316 38.7328 13.8825 38.7019 13.8277C38.6886 13.8077 38.6791 13.7855 38.6738 13.762V10.3473C38.6787 10.3239 38.6879 10.3017 38.701 10.2816C38.7326 10.2281 38.7724 10.1799 38.819 10.1388C38.8704 10.0929 38.928 10.0545 38.99 10.0245C39.0293 10.0039 39.0727 9.99235 39.1171 9.99072H47.5224V11.3172H40.2955V12.8122H47.0796C47.1239 12.8138 47.1673 12.825 47.2068 12.845C47.2691 12.8743 47.3267 12.9129 47.3777 12.9593C47.4244 13.0004 47.4644 13.0486 47.4962 13.1021C47.5089 13.122 47.5179 13.1439 47.5229 13.1669V16.5949C47.5177 16.6183 47.5084 16.6405 47.4953 16.6606C47.4639 16.7142 47.4242 16.7624 47.3777 16.8034C47.3266 16.8494 47.269 16.8876 47.2068 16.9168C47.1675 16.9375 47.124 16.9491 47.0796 16.9506L38.6738 16.9553Z" fill="white"/>
<path d="M57.2964 9.99832L56.655 9.98975V12.8012H51.0583V9.98975H49.4376V16.9548H51.0583V14.1315H56.655V16.9548H58.2857L58.2867 10.7182" fill="white"/>
<path d="M60.7631 8.90003L60.8097 8.86813L60.7631 8.8667L59.0395 8.83527L58.8872 8.82956L58.3096 7.04413L58.2954 6.99414L58.2739 7.05841L57.7969 8.44153L57.6631 8.80623L57.654 8.83289L55.7853 8.8667L57.2574 9.97747L56.6804 11.7472L58.2387 10.7016L59.7561 11.8067L59.8323 11.8605L59.8123 11.7924L59.2647 9.99699L59.648 9.70799L60.7631 8.90003Z" fill="white"/>
</svg>
