<svg width="54" height="25" viewBox="0 0 54 25" fill="none" xmlns="http://www.w3.org/2000/svg">
<rect y="0.994141" width="53.5196" height="24" rx="2" fill="#C1C6E5"/>
<path d="M35.252 14.6669V16.0653C35.252 16.6203 35.252 17.1736 35.252 17.7269C35.252 17.9125 35.1997 17.9884 34.9989 17.9867C34.223 17.9766 33.4464 17.9766 32.6693 17.9867C32.4719 17.9867 32.418 17.9209 32.418 17.7303C32.418 14.5746 32.418 11.4185 32.418 8.26171C32.418 8.06603 32.4838 8.0053 32.6744 8.00699C33.4605 8.00699 34.2466 8.01711 35.036 8.00699C35.2351 8.00699 35.3093 8.10652 35.3734 8.25834C35.8143 9.19063 36.2568 10.1229 36.701 11.0552C36.7508 11.173 36.8899 11.1105 36.8899 10.9827C36.8899 10.0971 36.8899 9.20975 36.8899 8.32413C36.8899 8.09133 36.9389 7.99855 37.1936 8.00361C37.9426 8.02048 38.6916 8.01542 39.4422 8.00361C39.6632 8.00361 39.7256 8.08121 39.7256 8.29376C39.7256 11.4314 39.7256 14.5696 39.7256 17.7083C39.7256 17.931 39.6463 17.9884 39.4355 17.985C38.6764 17.9749 37.9178 17.9749 37.1598 17.985C37.079 17.9954 36.9971 17.9773 36.9282 17.9339C36.8593 17.8905 36.8076 17.8245 36.782 17.7471C36.3619 16.8345 35.925 15.9304 35.4932 15.0228C35.4609 14.9537 35.4256 14.886 35.3903 14.8189C35.3542 14.7502 35.298 14.6054 35.2486 14.6652" fill="white"/>
<path d="M23.9259 11.0981C23.985 10.9969 24.0508 10.8974 24.1064 10.7928C24.5501 9.94934 24.9887 9.09071 25.4424 8.24726C25.4719 8.19045 25.5135 8.14078 25.5642 8.10173C25.6649 8.02414 25.8 8.01996 25.9272 8.01809C26.798 8.00525 27.6688 8.01121 28.5396 8.01278C28.631 8.02497 28.6718 8.12621 28.6306 8.20875C28.5442 8.38177 28.4628 8.54444 28.3793 8.7061C27.8103 9.80258 27.2373 10.8991 26.6604 11.9956C26.6117 12.0718 26.5818 12.1584 26.573 12.2484C26.5642 12.3384 26.5768 12.4292 26.6098 12.5134C27.2626 14.2459 27.8969 15.9851 28.5362 17.7226C28.5815 17.8435 28.4867 17.9803 28.3577 17.9851C28.3463 17.9855 28.335 17.9857 28.3237 17.9857C27.5089 17.9857 26.6941 17.9857 25.881 17.9857C25.8002 17.9968 25.7182 17.9766 25.6518 17.9292C25.5206 17.8358 25.4966 17.6548 25.4422 17.5032C25.2575 16.9889 25.0653 16.4751 24.8756 15.9665C24.8345 15.8513 24.6685 15.8529 24.6119 15.9614L24.1334 16.8791C23.9765 17.1811 23.8348 17.4932 23.6577 17.7833C23.6222 17.8356 23.5761 17.8798 23.5223 17.9129C23.4685 17.9461 23.4083 17.9674 23.3456 17.9756C22.6709 17.9942 22.013 17.9756 21.3467 17.9908C21.0936 17.9908 21.0413 17.9115 21.043 17.6753C21.0514 15.1281 21.043 12.5809 21.043 10.0337C21.043 9.44327 21.043 8.85286 21.043 8.26244C21.043 8.06676 21.1088 8.00604 21.2994 8.00941C22.0568 8.00941 22.8176 8.01953 23.575 8.00941C23.796 8.00941 23.8618 8.07689 23.8584 8.29618C23.8483 9.17169 23.8584 10.0489 23.8584 10.9261C23.8584 10.9582 23.8584 10.9911 23.8608 11.0238C23.8635 11.0613 23.8914 11.0912 23.9276 11.1015" fill="white"/>
<path d="M42.8093 12.9629C42.8093 13.194 42.8177 13.4251 42.8093 13.6545C42.8009 13.8839 42.9122 13.943 43.118 13.8806C43.3051 13.8105 43.466 13.6845 43.5789 13.5197C43.6918 13.3549 43.7512 13.1593 43.7489 12.9595C43.7403 12.7551 43.6653 12.5591 43.5353 12.4012C43.4054 12.2432 43.2275 12.1318 43.0286 12.084C42.8785 12.0503 42.816 12.1009 42.8144 12.2426C42.8144 12.4838 42.8144 12.7233 42.8144 12.9629M40.252 12.9713C40.252 11.4211 40.252 9.86911 40.252 8.31885C40.252 8.07256 40.3211 8.00002 40.5657 8.00677C41.3586 8.0287 42.1582 7.95954 42.9274 8.20751C44.761 8.79118 45.9638 10.0074 46.3838 11.8715C46.9776 14.4642 45.5792 16.8748 43.059 17.7436C42.337 17.9915 41.588 17.9932 40.8373 17.9848C40.2536 17.9848 40.2536 17.9848 40.2536 17.4045V12.9713" fill="white"/>
<path d="M31.879 17.9679H29.3965C29.2266 17.9679 29.072 17.8307 29.072 17.6608C29.072 14.5513 29.072 11.4424 29.072 8.33396C29.072 8.08767 29.1294 7.99658 29.3925 7.99658C30.123 8.01345 30.8534 8.01008 31.5855 7.99658C31.8166 7.99658 31.9111 8.0455 31.9111 8.30191C31.9032 11.4272 31.9032 14.5541 31.9111 17.6828C31.9111 17.7637 31.8993 17.8515 31.8908 17.9594" fill="white"/>
<path d="M9.94701 15.6156C9.74121 15.678 9.6265 15.6341 9.63831 15.3895C9.65012 15.1449 9.63831 14.929 9.63831 14.6979C9.63831 14.4584 9.63831 14.2188 9.63831 13.9776C9.63831 13.8359 9.70241 13.7853 9.85255 13.819C10.0521 13.8658 10.2309 13.9765 10.3619 14.1342C10.4928 14.2919 10.5686 14.4881 10.5779 14.6928C10.5802 14.8926 10.5208 15.0882 10.4079 15.253C10.2951 15.4178 10.1341 15.5439 9.94701 15.6139M9.64843 10.4385C9.64843 10.2934 9.64843 10.15 9.64843 10.005C9.64843 9.92061 9.68554 9.89025 9.77664 9.9088C9.89623 9.93819 10.0031 10.0055 10.0812 10.1007C10.1555 10.1911 10.2 10.302 10.209 10.4183C10.21 10.4306 10.2102 10.443 10.2102 10.4554C10.211 10.4615 10.211 10.4678 10.2102 10.4739C10.2029 10.5856 10.1636 10.6927 10.0968 10.7825C10.0301 10.8723 9.9388 10.9409 9.83399 10.98C9.71085 11.0188 9.64168 10.9918 9.64843 10.845C9.65518 10.6983 9.64843 10.5667 9.64843 10.4284M15.9676 11.0947C15.9676 10.894 16.0249 10.8029 16.2493 10.8079C16.9341 10.8214 17.619 10.8079 18.3039 10.8164C18.5283 10.8164 18.6126 10.7556 18.6092 10.5211C18.5974 9.78229 18.5957 9.04342 18.6092 8.30625C18.6092 8.05659 18.5249 7.99249 18.287 7.99417C16.6777 8.00317 15.0679 8.00317 13.4575 7.99417C13.196 7.99417 13.1336 8.07514 13.1353 8.33155C13.1454 10.0758 13.1353 11.8217 13.1353 13.5609V13.8389C13.1353 13.8589 13.1215 13.8762 13.102 13.8808C13.0799 13.8859 13.0576 13.8729 13.0508 13.8513C12.799 13.0543 12.2848 12.4989 11.5014 12.1438C11.4389 12.1154 11.4328 12.025 11.4888 11.9854C12.2294 11.3815 12.501 10.5987 12.2547 9.68782C12.154 9.23916 11.9089 8.83593 11.5569 8.54003C11.205 8.24414 10.7656 8.07193 10.3063 8.04984C9.24523 7.9575 8.17076 8.01555 7.10289 8.00945C7.0928 8.00939 7.0827 8.01033 7.07297 8.01296C7.0257 8.02574 7 8.07331 7 8.12227V17.8659C7 17.9161 7.02942 17.9635 7.07864 17.9735C7.08578 17.975 7.09307 17.9756 7.10035 17.9756C8.12405 17.9759 9.15105 18.0276 10.1697 17.957C10.7511 17.9349 11.3141 17.7471 11.7923 17.4156C12.2705 17.0842 12.644 16.6229 12.8687 16.0862C12.937 15.9353 12.9963 15.7815 13.0594 15.6288C13.0662 15.6123 13.0838 15.6029 13.1013 15.6063C13.1191 15.6097 13.1319 15.6252 13.1319 15.6433V17.8088C13.1319 17.8918 13.1861 17.9674 13.2685 17.9772C14.9723 17.9772 16.6744 17.9772 18.3764 17.9772C18.5789 17.9772 18.5957 17.8676 18.5957 17.7124C18.5957 16.955 18.5957 16.1942 18.5957 15.4418C18.5957 15.2242 18.5215 15.15 18.3056 15.1534C17.6764 15.1534 17.0472 15.1534 16.418 15.1534C15.9456 15.1534 15.9574 15.1534 15.9507 14.6794C15.9507 14.4297 16.0452 14.3639 16.2881 14.3673C16.9628 14.3791 17.6376 14.3673 18.3123 14.3757C18.5283 14.3757 18.6042 14.3032 18.6008 14.0856C18.6008 13.3484 18.589 12.6095 18.6008 11.8707C18.6008 11.6227 18.5165 11.5535 18.2786 11.5586C17.5937 11.5721 16.9088 11.5586 16.224 11.5586C16.0384 11.5586 15.9608 11.5114 15.9608 11.3089L15.9676 11.0947Z" fill="white"/>
</svg>
