<svg width="22" height="22" viewBox="0 0 22 22" fill="none" xmlns="http://www.w3.org/2000/svg">
<path fill-rule="evenodd" clip-rule="evenodd" d="M1.23566 1.23566C1.54988 0.921446 2.05932 0.921446 2.37353 1.23566L20.7643 19.6265C21.0786 19.9407 21.0786 20.4501 20.7643 20.7643C20.4501 21.0786 19.9407 21.0786 19.6265 20.7643L1.23566 2.37353C0.921446 2.05932 0.921446 1.54988 1.23566 1.23566Z" fill="black"/>
<path fill-rule="evenodd" clip-rule="evenodd" d="M20.7643 1.23566C21.0786 1.54988 21.0786 2.05932 20.7643 2.37353L2.37353 20.7643C2.05932 21.0786 1.54988 21.0786 1.23566 20.7643C0.921446 20.4501 0.921446 19.9407 1.23566 19.6265L19.6265 1.23566C19.9407 0.921446 20.4501 0.921446 20.7643 1.23566Z" fill="black"/>
</svg>
