<svg width="16" height="16" viewBox="0 0 16 16" fill="none" xmlns="http://www.w3.org/2000/svg">
<path d="M8.77699 11.7228H1" stroke="black" stroke-width="1.2" stroke-linecap="round" stroke-linejoin="round"/>
<path fill-rule="evenodd" clip-rule="evenodd" d="M6.44247 6.27752H4.88707C4.45778 6.27752 4.10938 5.92912 4.10938 5.49983V2.38903C4.10938 1.95974 4.45778 1.61133 4.88707 1.61133H6.44247C6.87176 1.61133 7.22017 1.95974 7.22017 2.38903V5.49983C7.22017 5.92912 6.87176 6.27752 6.44247 6.27752Z" stroke="black" stroke-width="1.2" stroke-linecap="round" stroke-linejoin="round"/>
<path d="M1 3.94354H4.1108" stroke="black" stroke-width="1.2" stroke-linecap="round" stroke-linejoin="round"/>
<path d="M7.22266 3.94354H14.9996" stroke="black" stroke-width="1.2" stroke-linecap="round" stroke-linejoin="round"/>
<path fill-rule="evenodd" clip-rule="evenodd" d="M9.55309 9.38672H11.1085C11.5378 9.38672 11.8862 9.73513 11.8862 10.1644V13.2752C11.8862 13.7045 11.5378 14.0529 11.1085 14.0529H9.55309C9.1238 14.0529 8.77539 13.7045 8.77539 13.2752V10.1644C8.77539 9.73513 9.1238 9.38672 9.55309 9.38672Z" stroke="black" stroke-width="1.2" stroke-linecap="round" stroke-linejoin="round"/>
<path d="M14.9995 11.7228H11.8887" stroke="black" stroke-width="1.2" stroke-linecap="round" stroke-linejoin="round"/>
</svg>
