<svg width="21" height="20" viewBox="0 0 21 20" fill="none" xmlns="http://www.w3.org/2000/svg">
<path fill-rule="evenodd" clip-rule="evenodd" d="M1.78215 9.60375C1.77929 9.59882 1.77671 9.59422 1.77545 9.59196C1.77437 9.59004 1.77371 9.58886 1.77371 9.58886L1.77304 9.58771C1.26675 8.70791 1 7.6994 1 6.66985C1 3.55837 3.41988 1 6.42783 1C8.00954 1 9.48394 1.71607 10.5 2.92009C11.5161 1.71606 12.9906 1 14.5722 1C17.5801 1 20 3.55837 20 6.66985C20 7.69772 19.7341 8.70462 19.2294 9.5834C19.2266 9.58867 19.2217 9.59754 19.2157 9.60741C18.1217 11.4776 16.1112 13.4956 14.3694 15.0535C12.6208 16.6174 11.1086 17.7474 10.9785 17.8441C10.8398 17.9477 10.6777 17.9988 10.5165 17.9998C10.5056 18.0001 10.4946 18.0001 10.4837 17.9998C10.3223 17.9988 10.1604 17.9475 10.0218 17.8443C9.8941 17.7494 8.38085 16.6187 6.63073 15.0535C4.88802 13.4948 2.87584 11.4747 1.78215 9.60375ZM3.15988 8.78064L3.15841 8.77756L3.15125 8.7652C2.78706 8.13706 2.59379 7.41267 2.59379 6.66985C2.59379 4.43122 4.32891 2.6367 6.42824 2.6367C7.82737 2.6367 9.12065 3.43749 9.7972 4.74206C9.9329 5.0042 10.2006 5.17575 10.5004 5.17575C10.8002 5.17575 11.0679 5.0042 11.2036 4.74206C11.8802 3.43749 13.1734 2.6367 14.5726 2.6367C16.6717 2.6367 18.407 4.43103 18.407 6.66985C18.407 7.41261 18.2136 8.13704 17.8495 8.76527L17.8483 8.76736L17.8459 8.77174L17.8452 8.77298L17.8444 8.77428C16.9735 10.2584 15.3766 11.928 13.8336 13.3491C12.4667 14.6079 11.1648 15.6514 10.5002 16.1691C9.83557 15.6514 8.53371 14.6079 7.16684 13.349C5.62607 11.93 4.0316 10.2632 3.15988 8.78064Z" fill="black"/>
</svg>
