<svg width="20" height="20" viewBox="0 0 20 20" fill="none" xmlns="http://www.w3.org/2000/svg">
<path fill-rule="evenodd" clip-rule="evenodd" d="M17.25 10C17.25 5.99551 14.0045 2.75 10 2.75C5.99551 2.75 2.75 5.99551 2.75 10C2.75 14.0045 5.99551 17.25 10 17.25C14.0045 17.25 17.25 14.0045 17.25 10ZM18.75 10C18.75 5.16708 14.8329 1.25 10 1.25C5.16708 1.25 1.25 5.16708 1.25 10C1.25 14.8329 5.16708 18.75 10 18.75C14.8329 18.75 18.75 14.8329 18.75 10Z" fill="black"/>
<path fill-rule="evenodd" clip-rule="evenodd" d="M9.25 14.7109L9.25 9.04427L10.75 9.04427L10.75 14.7109L9.25 14.7109Z" fill="black"/>
<path fill-rule="evenodd" clip-rule="evenodd" d="M10.959 6.66395C10.9614 7.19719 10.5287 7.625 10.0015 7.625C9.47338 7.625 9.04231 7.19783 9.04231 6.66667C9.04231 6.13745 9.47143 5.70833 10.0006 5.70833C10.529 5.70833 10.9575 6.13598 10.959 6.66395Z" fill="black"/>
</svg>
