<svg width="16" height="17" viewBox="0 0 16 17" fill="none" xmlns="http://www.w3.org/2000/svg">
<path d="M12.374 9.73867H10.624" stroke="black" stroke-width="1.2" stroke-linecap="square" stroke-linejoin="round"/>
<path d="M5.375 9.73867H3.625" stroke="black" stroke-width="1.2" stroke-linecap="square" stroke-linejoin="round"/>
<path d="M13.1643 6.9417L12.577 4.1333C12.4069 3.3227 11.6922 2.7417 10.8634 2.7417H5.20739C4.39469 2.7417 3.68839 3.3017 3.50359 4.0934L2.83789 6.9417" stroke="black" stroke-width="1.2" stroke-linecap="round" stroke-linejoin="round"/>
<path fill-rule="evenodd" clip-rule="evenodd" d="M1.875 13.9399H3.45C4.0296 13.9399 4.5 13.4695 4.5 12.8899V12.1899H11.5V12.8899C11.5 13.4695 11.9704 13.9399 12.55 13.9399H14.125C14.608 13.9399 15 13.5479 15 13.0649V9.03994C15 7.88004 14.0599 6.93994 12.9 6.93994H3.1C1.9401 6.93994 1 7.88004 1 9.03994V13.0649C1 13.5479 1.392 13.9399 1.875 13.9399Z" stroke="black" stroke-width="1.2" stroke-linecap="round" stroke-linejoin="round"/>
</svg>
