<svg width="14" height="15" viewBox="0 0 14 15" fill="none" xmlns="http://www.w3.org/2000/svg">
<path fill-rule="evenodd" clip-rule="evenodd" d="M4.94922 12.7285C4.94922 12.4456 5.17853 12.2163 5.4614 12.2163H7.80282C8.08569 12.2163 8.31501 12.4456 8.31501 12.7285C8.31501 13.0114 8.08569 13.2407 7.80282 13.2407H5.4614C5.17853 13.2407 4.94922 13.0114 4.94922 12.7285Z" fill="black"/>
<path fill-rule="evenodd" clip-rule="evenodd" d="M2.46339 5.41235C2.46339 3.10927 4.33096 1.2417 6.63403 1.2417C8.93711 1.2417 10.8047 3.10927 10.8047 5.41235V7.24451C10.8047 7.2865 10.8281 7.32622 10.8681 7.34674C10.8679 7.34662 10.8683 7.34686 10.8681 7.34674L11.2346 7.52961C11.8675 7.84607 12.2681 8.49327 12.2681 9.20105C12.2681 10.2332 11.4315 11.0698 10.3993 11.0698H2.86874C1.83662 11.0698 1 10.2332 1 9.20105C1 8.49315 1.40026 7.8465 2.03253 7.52935L2.40052 7.34572C2.40041 7.34578 2.40064 7.34567 2.40052 7.34572C2.43935 7.32608 2.46339 7.28687 2.46339 7.24451V5.41235ZM3.48776 5.41235V7.24451C3.48776 7.67615 3.24379 8.06871 2.8599 8.26131L2.49181 8.445C2.49168 8.44506 2.49194 8.44493 2.49181 8.445C2.2053 8.58889 2.02437 8.8818 2.02437 9.20105C2.02437 9.66743 2.40236 10.0454 2.86874 10.0454H10.3993C10.8657 10.0454 11.2437 9.66743 11.2437 9.20105C11.2437 8.88154 11.0629 8.58907 10.7768 8.44602L10.4092 8.26255L10.4069 8.26141C10.0244 8.06817 9.78031 7.67641 9.78031 7.24451V5.41235C9.78031 3.67502 8.37137 2.26607 6.63403 2.26607C4.8967 2.26607 3.48776 3.67502 3.48776 5.41235Z" fill="black"/>
</svg>
