<svg width="14" height="15" viewBox="0 0 14 15" fill="none" xmlns="http://www.w3.org/2000/svg">
<path fill-rule="evenodd" clip-rule="evenodd" d="M2.1049 4.69607C1.64499 4.69607 1.27273 5.06833 1.27273 5.52823V12.1366C1.27273 12.5965 1.64499 12.9688 2.1049 12.9688H8.71329C9.1732 12.9688 9.54545 12.5965 9.54545 12.1366V5.52823C9.54545 5.06833 9.1732 4.69607 8.71329 4.69607H2.1049ZM0 5.52823C0 4.36542 0.942077 3.42334 2.1049 3.42334H8.71329C9.8761 3.42334 10.8182 4.36542 10.8182 5.52823V12.1366C10.8182 13.2994 9.8761 14.2415 8.71329 14.2415H2.1049C0.942077 14.2415 0 13.2994 0 12.1366V5.52823Z" fill="black"/>
<path fill-rule="evenodd" clip-rule="evenodd" d="M5.18164 1.51443C4.77969 1.51443 4.45437 1.83974 4.45437 2.2417V4.05988C4.45437 4.41133 4.16946 4.69624 3.818 4.69624C3.46655 4.69624 3.18164 4.41133 3.18164 4.05988V2.2417C3.18164 1.13684 4.07678 0.241699 5.18164 0.241699H11.9998C13.1047 0.241699 13.9998 1.13684 13.9998 2.2417V9.05988C13.9998 10.1647 13.1047 11.0599 11.9998 11.0599H10.1816C9.83019 11.0599 9.54528 10.775 9.54528 10.4235C9.54528 10.0721 9.83019 9.78715 10.1816 9.78715H11.9998C12.4018 9.78715 12.7271 9.46184 12.7271 9.05988V2.2417C12.7271 1.83974 12.4018 1.51443 11.9998 1.51443H5.18164Z" fill="black"/>
</svg>
