<svg width="22" height="22" viewBox="0 0 22 22" fill="none" xmlns="http://www.w3.org/2000/svg">
<path fill-rule="evenodd" clip-rule="evenodd" d="M13.8284 3.17157C15.3905 4.73367 15.3905 7.26633 13.8284 8.82843C12.2663 10.3905 9.73367 10.3905 8.17157 8.82843C6.60948 7.26633 6.60948 4.73367 8.17157 3.17157C9.73367 1.60948 12.2663 1.60948 13.8284 3.17157Z" stroke="white" stroke-width="1.6" stroke-linecap="round" stroke-linejoin="round"/>
<path fill-rule="evenodd" clip-rule="evenodd" d="M7.44444 13L14.5556 13C17.0098 13 19 15.0102 19 17.489L19 19.1022C19 19.5978 18.6018 20 18.1111 20L3.88889 20C3.39822 20 3 19.5978 3 19.1022L3 17.489C3 15.0102 4.99022 13 7.44444 13Z" stroke="white" stroke-width="1.6" stroke-linecap="round" stroke-linejoin="round"/>
</svg>
