<svg width="22" height="22" viewBox="0 0 22 22" fill="none" xmlns="http://www.w3.org/2000/svg">
<path d="M14.7854 9.57659V3.89415C14.7854 2.84763 13.8318 2 12.6545 2H8.39263C7.2153 2 6.26172 2.84763 6.26172 3.89415V9.57659" stroke="white" stroke-width="1.6" stroke-linecap="round" stroke-linejoin="round"/>
<path fill-rule="evenodd" clip-rule="evenodd" d="M14.312 20.1847H6.73537C4.1205 20.1847 2 17.9002 2 15.083V7.56721C2 7.00399 2.42429 6.54688 2.94707 6.54688H18.1002C18.623 6.54688 19.0473 7.00399 19.0473 7.56721V15.083C19.0473 17.9002 16.9268 20.1847 14.312 20.1847Z" stroke="white" stroke-width="1.6" stroke-linecap="round" stroke-linejoin="round"/>
<path fill-rule="evenodd" clip-rule="evenodd" d="M5.46094 3.89337C5.46094 2.31904 6.86388 1.19922 8.39185 1.19922H12.6537C14.1817 1.19922 15.5846 2.31904 15.5846 3.89337V9.57581C15.5846 10.0176 15.2264 10.3758 14.7846 10.3758C14.3428 10.3758 13.9846 10.0176 13.9846 9.57581V3.89337C13.9846 3.37466 13.4804 2.79922 12.6537 2.79922H8.39185C7.56517 2.79922 7.06094 3.37466 7.06094 3.89337V9.57581C7.06094 10.0176 6.70277 10.3758 6.26094 10.3758C5.81911 10.3758 5.46094 10.0176 5.46094 9.57581V3.89337Z" fill="white"/>
<path fill-rule="evenodd" clip-rule="evenodd" d="M2.86306 7.3893C2.82881 7.42619 2.79922 7.48693 2.79922 7.56643V15.0823C2.79922 17.5148 4.61664 19.384 6.73459 19.384H14.3112C16.4291 19.384 18.2465 17.5148 18.2465 15.0823V7.56643C18.2465 7.48693 18.2169 7.42619 18.1827 7.3893C18.1494 7.35339 18.1195 7.34609 18.0995 7.34609H2.94629C2.92621 7.34609 2.89639 7.35339 2.86306 7.3893ZM1.19922 7.56643C1.19922 6.61856 1.92659 5.74609 2.94629 5.74609H18.0995C19.1192 5.74609 19.8465 6.61856 19.8465 7.56643V15.0823C19.8465 18.2841 17.423 20.984 14.3112 20.984H6.73459C3.6228 20.984 1.19922 18.2841 1.19922 15.0823V7.56643Z" fill="white"/>
</svg>
