<svg width="109" height="16" viewBox="0 0 109 16" fill="none" xmlns="http://www.w3.org/2000/svg">
<g clip-path="url(#clip0_164_11911)">
<path d="M65.333 7.72058L62.2436 4.24707H60.4375V12.2894H62.3232V7.15825L65.1438 10.1983H65.4924L68.2643 7.15825V12.2894H70.15V4.24707H68.3439L65.333 7.72058Z" fill="black"/>
<path d="M79.134 4.24707L74.46 9.47431V4.24707H72.5742V12.2894H74.3019L78.9759 7.06218V12.2894H80.8616V4.24707H79.134Z" fill="black"/>
<path d="M50.2807 7.18987C50.2807 8.47033 50.9732 9.479 52.036 9.90191L50.043 12.2894H52.3512L54.1641 10.1175H56.1261V12.2894H58.0116V4.24707H53.2108C51.4209 4.24707 50.2807 5.48534 50.2807 7.18988L50.2807 7.18987ZM56.1272 6.01836V8.39651H53.5605C52.7043 8.39651 52.2449 7.91385 52.2449 7.20627C52.2449 6.49868 52.7203 6.01601 53.5605 6.01601L56.1272 6.01836Z" fill="black"/>
<path d="M41.5172 5.85553C41.4017 8.62145 40.8248 10.4068 39.695 10.4068H39.4121V12.3375L39.7134 12.3539C41.9787 12.4816 43.231 10.4713 43.4364 6.08047H46.4161V12.2894H48.2984V4.24707H41.5806L41.5172 5.85554L41.5172 5.85553Z" fill="black"/>
<path d="M34.4147 4.13281C31.8643 4.13281 30.0293 5.91818 30.0293 8.26588C30.0293 10.6944 32.0258 12.4165 34.4147 12.4165C36.9028 12.4165 38.8359 10.5984 38.8359 8.26588C38.8359 5.93341 36.9028 4.13281 34.4147 4.13281ZM34.4147 10.4859C32.9732 10.4859 31.9912 9.53696 31.9912 8.26588C31.9912 6.96317 32.9744 6.04002 34.4147 6.04002C35.8549 6.04002 36.8705 7.00535 36.8705 8.26588C36.8705 9.52643 35.841 10.4859 34.4147 10.4859Z" fill="black"/>
<path d="M28.0307 4.26465H21.3753L21.3117 5.87312C21.2172 8.19035 20.6194 10.394 19.4896 10.4256L18.9668 10.442V14.1908H20.8686V12.293H27.4755V14.1908H29.3937V10.4256H28.0307V4.26465ZM26.1449 10.4256H22.1208C22.8017 9.38061 23.1663 7.8682 23.2299 6.09922H26.1449V10.4256Z" fill="black"/>
<path d="M14.6274 2.42773H12.7988V12.3277H14.6274V2.42773Z" fill="black"/>
<path d="M10.3637 3.05176H8.53516V12.9518H10.3637V3.05176Z" fill="black"/>
<path d="M6.09421 3.66699H4.26562V13.567H6.09421V3.66699Z" fill="black"/>
<path d="M1.82858 4.29102H0V14.191H1.82858V4.29102Z" fill="black"/>
</g>
<path d="M98 15L105 8L98 1" stroke="black" stroke-width="1.2" stroke-linecap="round" stroke-linejoin="round"/>
<defs>
<clipPath id="clip0_164_11911">
<rect width="81" height="12.375" fill="white" transform="translate(0 1.8125)"/>
</clipPath>
</defs>
</svg>
