<svg width="22" height="22" viewBox="0 0 22 22" fill="none" xmlns="http://www.w3.org/2000/svg">
<path d="M1.74311 11.1076L1.74288 11.1072L1.73699 11.0969L1.73383 11.0913L1.73346 11.0907C1.20403 10.1724 0.924609 9.11888 0.924609 8.04256C0.924609 4.78738 3.45915 2.12578 6.59095 2.12578C8.3238 2.12578 9.93581 2.94904 10.9996 4.32446C12.0634 2.94904 13.6756 2.12578 15.4083 2.12578C18.5401 2.12578 21.0746 4.78738 21.0746 8.04256C21.0746 9.11804 20.7956 10.1708 20.267 11.0885C20.2645 11.0932 20.2602 11.101 20.2551 11.1093C19.0888 13.1002 16.9333 15.263 15.0489 16.9451C13.16 18.6313 11.5267 19.8492 11.392 19.9491C11.2783 20.0338 11.146 20.0751 11.0147 20.0756C11.0138 20.0756 11.013 20.0756 11.0122 20.0756L1.74311 11.1076ZM1.74311 11.1076C2.90933 13.0989 5.06556 15.2625 6.95047 16.9451C8.83901 18.631 10.472 19.8487 10.6071 19.949M1.74311 11.1076L10.9848 20.0756C10.8533 20.0751 10.721 20.0336 10.6071 19.949M10.6071 19.949L10.7114 19.8085M10.6071 19.949C10.6071 19.949 10.6071 19.949 10.6071 19.949L10.7114 19.8085M10.7114 19.8085C10.7954 19.8708 10.8918 19.9006 10.9872 19.9006L1.89412 11.0192C4.19682 14.951 10.4467 19.612 10.7114 19.8085ZM7.2489 15.4146C5.57673 13.8775 3.82863 12.0565 2.8688 10.4246L2.8691 10.4244L2.86203 10.4122C2.44878 9.70084 2.2301 8.88158 2.2301 8.04256C2.2301 5.51647 4.19388 3.47438 6.59139 3.47438C8.18808 3.47438 9.65825 4.38658 10.4251 5.86272C10.5375 6.07925 10.7571 6.21805 11.0001 6.21805C11.243 6.21805 11.4626 6.07925 11.575 5.86272C12.3419 4.38658 13.812 3.47438 15.4087 3.47438C17.806 3.47438 19.77 5.51625 19.77 8.04256C19.77 8.88155 19.5511 9.70083 19.138 10.4123L19.1369 10.4143L19.1326 10.4219L19.1319 10.423C18.1723 12.0553 16.4235 13.877 14.7508 15.4146C13.1712 16.8666 11.6721 18.054 10.9998 18.5729C10.3275 18.054 8.82845 16.8666 7.2489 15.4146ZM19.2828 10.5117L19.2894 10.5001L19.2828 10.5117Z" fill="black" stroke="black" stroke-width="0.35"/>
</svg>
