<svg width="22" height="22" viewBox="0 0 22 22" fill="none" xmlns="http://www.w3.org/2000/svg">
<path fill-rule="evenodd" clip-rule="evenodd" d="M14.8675 4.86981C12.1067 2.10902 7.6306 2.10902 4.86981 4.86981C2.10902 7.6306 2.10902 12.1067 4.86981 14.8675C7.6306 17.6283 12.1067 17.6283 14.8675 14.8675C17.6283 12.1067 17.6283 7.6306 14.8675 4.86981ZM3.73844 3.73844C7.12407 0.352812 12.6133 0.352812 15.9989 3.73844C19.1938 6.93335 19.3738 12.0015 16.5388 15.4074L20.5649 19.4335C20.8773 19.746 20.8773 20.2525 20.5649 20.5649C20.2525 20.8773 19.746 20.8773 19.4335 20.5649L15.4074 16.5388C12.0015 19.3738 6.93335 19.1938 3.73844 15.9989C0.352812 12.6133 0.352812 7.12407 3.73844 3.73844Z" fill="white"/>
</svg>
