<svg width="63" height="90" viewBox="0 0 63 90" fill="none" xmlns="http://www.w3.org/2000/svg">
<path fill-rule="evenodd" clip-rule="evenodd" d="M29.012 0.156764C38.1889 -0.822121 48.0691 2.80551 53.6955 10.4178C56.3612 14.1491 58.5505 18.2489 59.9117 22.6481C62.6569 31.0895 63.156 39.8764 62.9631 48.7094C62.861 56.9206 61.4658 65.2008 58.1535 72.7324C53.0716 83.6844 44.4959 89.3274 32.6193 89.9953C24.123 90.1335 15.6834 87.1969 9.96627 80.6787C2.99001 72.7209 0.210848 59.5923 0.097413 49.2046C-0.152144 44.4484 0.1201 39.6807 0.437718 34.9244C1.07295 27.0473 3.54584 19.2277 7.8904 12.6404C12.7454 5.66155 20.6745 1.12413 29.012 0.156764ZM29.4658 4.41779C22.2286 5.28151 15.4452 9.34676 11.2708 15.4158C7.09636 21.8074 4.90706 29.673 4.47601 37.2968C4.09033 43.6308 3.99958 50.0108 4.87303 56.3102C6.00738 63.3121 7.48204 70.2219 11.7926 75.957C16.8064 82.6479 24.3725 85.9071 32.6079 85.7113C42.7944 85.0318 49.7253 80.195 54.24 70.982C55.8961 67.3313 56.9738 63.4388 57.7224 59.5117C59.0269 53.1547 58.9135 46.625 58.7093 40.1644C58.0854 30.4446 56.123 20.1606 49.8047 12.4792C44.927 6.5483 36.9752 3.62317 29.4658 4.41779ZM30.9858 9.48496C28.5016 16.4062 25.643 23.1893 22.3874 29.7767C21.7408 31.1126 21.0035 32.4484 19.9032 33.4504C19.2566 34.0607 18.3605 34.2104 17.521 34.3486C17.487 34.5674 17.453 34.7747 17.419 34.9935C20.9128 34.982 24.4066 34.982 27.9004 34.9935C27.9004 34.8323 27.9004 34.4983 27.889 34.3371C26.9248 34.1529 25.8131 33.9916 25.2233 33.0934C25.4161 30.698 26.4824 28.4753 27.3672 26.2757C30.1577 26.2872 32.9482 26.2527 35.7387 26.4254C36.3513 28.0723 36.9411 29.7306 37.5083 31.3889C37.7806 32.126 37.8146 33.0818 37.1907 33.6461C36.6349 34.1874 35.8068 34.0147 35.1035 34.0722C35.0695 34.3717 35.0468 34.6711 35.0127 34.982C38.5406 34.9705 42.0571 34.9705 45.5849 34.982C45.5395 34.7747 45.4601 34.3717 45.4261 34.1644C43.9401 33.9916 42.5675 33.0588 41.8756 31.6999C37.9961 24.5828 34.922 17.0627 32.0294 9.48496C31.9386 9.27767 31.8252 9.07037 31.6891 8.88611C31.2353 8.72488 31.0879 9.15099 30.9858 9.48496ZM27.9344 24.6289C30.3392 24.6174 32.744 24.6865 35.1489 24.5828C33.9238 21.4504 32.7667 18.2834 31.4622 15.174C30.3619 18.3525 29.0914 21.4734 27.9344 24.6289ZM12.2123 39.4043C9.8188 41.3966 8.78654 45.2661 10.6242 47.9609C12.4165 50.3908 15.241 51.6231 17.7139 53.1432C19.4041 54.1106 21.2531 55.0664 22.3193 56.7939C23.1701 58.2104 23.0907 60.2142 21.9337 61.4234C20.856 62.4944 19.3133 63.0472 17.816 63.0242C16.0124 62.8975 14.2541 62.2296 12.8021 61.1355C11.7926 60.3294 11.2708 59.1202 10.6355 58.0261C10.2499 59.0396 10.0116 60.0875 9.79611 61.1586C10.6923 62.1029 11.8833 62.7132 13.029 63.2891C15.8535 64.5443 19.2453 65.0971 22.1379 63.7497C23.8848 62.9781 25.0985 61.3543 25.8472 59.6269C26.6299 57.7612 26.2102 55.5501 25.1325 53.8918C23.9301 52.1067 22.0925 50.886 20.2321 49.8956C18.179 48.8822 16.1598 47.7421 14.3335 46.3256C13.3353 45.5309 12.4959 44.3333 12.5866 42.9974C12.8248 41.2469 14.2655 39.7383 16.001 39.4503C17.6685 39.1509 19.5288 39.5425 20.8333 40.6826C21.582 41.316 21.911 42.2718 22.0925 43.2047C22.6597 42.4561 23.3516 41.7766 23.7486 40.9244C22.4782 39.531 20.856 38.4024 19.007 38.0223C16.693 37.5732 14.0953 37.8726 12.2123 39.4043ZM26.4144 46.3832C26.403 46.5559 26.3803 46.9129 26.369 47.0856C27.2538 47.1663 28.2407 47.1087 28.978 47.696C29.5338 48.2718 29.5338 49.1471 29.6019 49.9071C29.6246 56.3217 29.5792 62.7478 29.6359 69.1739C29.6473 70.3946 29.4884 71.8226 28.5129 72.6633C27.855 73.147 26.9815 73.0894 26.1988 73.0894C26.1988 73.3313 26.1988 73.5731 26.1988 73.8034C29.5679 73.8034 32.9369 73.8034 36.3059 73.8034C36.3059 73.504 36.3172 73.2161 36.3286 72.9282C35.353 72.9167 34.23 72.8591 33.504 72.1105C33.0957 71.4426 33.039 70.6249 32.9596 69.8649C32.9369 66.7324 32.9596 63.5885 32.9482 60.4561C36.408 60.433 39.8564 60.5021 43.3162 60.5021C43.3389 61.4119 43.3502 62.3332 43.3842 63.243C43.3502 63.7958 43.3502 64.3486 43.3842 64.9129C43.3162 66.6518 43.3842 68.4023 43.3502 70.1413C43.3389 70.9474 43.1347 71.7996 42.6015 72.4215C41.9323 73.0664 40.9454 73.0088 40.0946 73.1009C40.0833 73.2737 40.0493 73.6307 40.0379 73.8034C43.3956 73.815 46.7646 73.7919 50.1336 73.8034C50.1223 73.5846 50.1109 73.1585 50.0996 72.9512C49.1921 72.9397 48.1825 72.8937 47.4679 72.2603C46.8554 71.5578 46.7306 70.5674 46.7306 69.6576C46.7306 67.124 46.7306 64.5789 46.7306 62.0453C46.5264 58.1643 46.6965 54.2833 46.6171 50.4023C46.6171 49.3313 46.8667 48.076 47.8082 47.4427C48.4661 46.9705 49.3282 47.1432 50.0769 47.1202C50.0883 46.959 50.1223 46.6365 50.145 46.4753C46.7986 46.4868 43.441 46.4638 40.0946 46.4868C40.0946 46.648 40.0833 46.9705 40.0833 47.1317C41.0361 47.1317 42.2159 47.0165 42.8851 47.8572C43.3389 48.6864 43.3162 49.6883 43.3275 50.6211C43.3048 53.2008 43.3502 55.7689 43.3502 58.3486C39.8904 58.3486 36.4307 58.3486 32.9596 58.3486C32.9596 55.5386 32.9709 52.7171 32.9596 49.9071C32.9255 49.101 33.1411 48.2603 33.6855 47.6499C34.4002 46.9705 35.4324 47.1547 36.3172 47.1432C36.3172 46.9475 36.3286 46.5674 36.3286 46.3716C33.0276 46.4062 29.7153 46.3832 26.4144 46.3832Z" fill="white"/>
</svg>
