<svg width="21" height="16" viewBox="0 0 21 16" fill="none" xmlns="http://www.w3.org/2000/svg">
<path fill-rule="evenodd" clip-rule="evenodd" d="M0 0.924219C0 0.454777 0.391751 0.0742188 0.875 0.0742188H19.5417C20.0249 0.0742188 20.4167 0.454777 20.4167 0.924219C20.4167 1.39366 20.0249 1.77422 19.5417 1.77422H0.875C0.391751 1.77422 0 1.39366 0 0.924219Z" fill="white"/>
<path fill-rule="evenodd" clip-rule="evenodd" d="M0 7.62417C0 7.15473 0.391751 6.77417 0.875 6.77417H13.7083C14.1916 6.77417 14.5833 7.15473 14.5833 7.62417C14.5833 8.09361 14.1916 8.47417 13.7083 8.47417H0.875C0.391751 8.47417 0 8.09361 0 7.62417Z" fill="white"/>
<path fill-rule="evenodd" clip-rule="evenodd" d="M0 14.3241C0 13.8547 0.391751 13.4741 0.875 13.4741H19.5417C20.0249 13.4741 20.4167 13.8547 20.4167 14.3241C20.4167 14.7936 20.0249 15.1741 19.5417 15.1741H0.875C0.391751 15.1741 0 14.7936 0 14.3241Z" fill="white"/>
</svg>
