<svg width="16" height="16" viewBox="0 0 16 16" fill="none" xmlns="http://www.w3.org/2000/svg">
<path fill-rule="evenodd" clip-rule="evenodd" d="M6.00781 14.4022C6.00781 14.0722 6.27534 13.8047 6.60536 13.8047H9.33702C9.66703 13.8047 9.93456 14.0722 9.93456 14.4022C9.93456 14.7323 9.66703 14.9998 9.33702 14.9998H6.60536C6.27534 14.9998 6.00781 14.7323 6.00781 14.4022Z" fill="black"/>
<path fill-rule="evenodd" clip-rule="evenodd" d="M3.10572 5.86576C3.10572 3.17884 5.28456 1 7.97148 1C10.6584 1 12.8372 3.17884 12.8372 5.86576V8.00328C12.8372 8.05227 12.8646 8.0986 12.9112 8.12254C12.911 8.12241 12.9115 8.12268 12.9112 8.12254L13.3388 8.3359C14.0772 8.70509 14.5445 9.46017 14.5445 10.2859C14.5445 11.4901 13.5685 12.4661 12.3643 12.4661H3.57864C2.37449 12.4661 1.39844 11.4901 1.39844 10.2859C1.39844 9.46003 1.86541 8.7056 2.60306 8.3356L3.03238 8.12136C3.03225 8.12143 3.03251 8.1213 3.03238 8.12136C3.07768 8.09845 3.10572 8.0527 3.10572 8.00328V5.86576ZM4.30082 5.86576V8.00328C4.30082 8.50686 4.01619 8.96484 3.56832 9.18955L3.13888 9.40385C3.13873 9.40392 3.13903 9.40377 3.13888 9.40385C2.80462 9.57172 2.59354 9.91346 2.59354 10.2859C2.59354 10.83 3.03453 11.271 3.57864 11.271H12.3643C12.9084 11.271 13.3494 10.83 13.3494 10.2859C13.3494 9.91315 13.1385 9.57193 12.8048 9.40504L12.3758 9.19099L12.3732 9.18966C11.9269 8.96422 11.6421 8.50716 11.6421 8.00328V5.86576C11.6421 3.83887 9.99837 2.1951 7.97148 2.1951C5.94459 2.1951 4.30082 3.83887 4.30082 5.86576Z" fill="black"/>
</svg>
