<svg width="14" height="15" viewBox="0 0 14 15" fill="none" xmlns="http://www.w3.org/2000/svg">
<path fill-rule="evenodd" clip-rule="evenodd" d="M4.94922 12.9868C4.94922 12.7039 5.17853 12.4746 5.4614 12.4746H7.80282C8.08569 12.4746 8.31501 12.7039 8.31501 12.9868C8.31501 13.2697 8.08569 13.499 7.80282 13.499H5.4614C5.17853 13.499 4.94922 13.2697 4.94922 12.9868Z" fill="black"/>
<path fill-rule="evenodd" clip-rule="evenodd" d="M2.46339 5.67065C2.46339 3.36757 4.33096 1.5 6.63403 1.5C8.93711 1.5 10.8047 3.36757 10.8047 5.67065V7.50281C10.8047 7.5448 10.8281 7.58452 10.8681 7.60504L11.2346 7.78791C11.8675 8.10437 12.2681 8.75157 12.2681 9.45935C12.2681 10.4915 11.4315 11.3281 10.3993 11.3281H2.86874C1.83662 11.3281 1 10.4915 1 9.45935C1 8.75145 1.40026 8.1048 2.03253 7.78765L2.40052 7.60403C2.43935 7.58439 2.46339 7.54517 2.46339 7.50281V5.67065Z" fill="black"/>
</svg>
