<svg width="39" height="20" viewBox="0 0 39 20" fill="none" xmlns="http://www.w3.org/2000/svg">
<path fill-rule="evenodd" clip-rule="evenodd" d="M28.1775 11.4258C28.89 11.2864 29.6175 11.2396 30.342 11.2865C30.5742 12.4848 29.1065 13.1443 28.1496 12.717C28.0277 12.6589 27.9247 12.5674 27.8526 12.4531C27.7805 12.3389 27.7422 12.2065 27.7422 12.0714C27.7422 11.9363 27.7805 11.804 27.8526 11.6897C27.9247 11.5755 28.0277 11.484 28.1496 11.4258H28.1775ZM20.4763 6.53014C21.4758 6.44985 22.4818 6.52505 23.4583 6.75308C23.8009 6.9357 24.0615 7.24153 24.1873 7.6088C24.3132 7.97607 24.295 8.37742 24.1364 8.7318C24.0321 9.00108 23.8554 9.23637 23.626 9.41174C23.3965 9.58712 23.1231 9.69572 22.8359 9.72575C22.0513 9.79395 21.2634 9.81572 20.4763 9.79084C20.4763 8.70085 20.4763 7.61394 20.4763 6.53014ZM32.5529 7.62626C33.4819 9.80935 34.3551 11.9831 35.2562 14.1291C35.0704 14.5471 34.9404 15.0581 34.4573 15.2532C34.274 15.2889 34.085 15.2842 33.9037 15.2393C33.7224 15.1943 33.5531 15.1103 33.4076 14.9931C33.4076 15.4668 33.4076 15.9221 33.4076 16.4051C33.6798 16.5532 33.9802 16.6422 34.2892 16.6662C34.5981 16.6902 34.9087 16.6487 35.2005 16.5445C35.7797 16.1593 36.2016 15.5792 36.3896 14.9095C37.2628 12.4756 38.1175 10.0323 39 7.60767H37.4207C36.9098 9.06615 36.4918 10.5619 35.953 11.9925C35.3584 10.5433 34.8011 9.06615 34.2065 7.60767L32.5529 7.62626ZM26.719 8.08145C26.719 8.71315 26.719 9.34485 26.719 9.93939C27.051 9.47334 27.5214 9.12379 28.0634 8.94034C28.6054 8.7569 29.1914 8.74891 29.7381 8.91755C30.3048 9.10334 30.3141 9.78146 30.342 10.2831C29.4672 10.2458 28.5908 10.2831 27.7223 10.3946C27.3841 10.4333 27.0662 10.5755 26.8118 10.8016C26.5575 11.0277 26.379 11.3268 26.301 11.6581C26.1887 12.07 26.2071 12.5065 26.3535 12.9075C26.5 13.3085 26.7672 13.6542 27.1185 13.8968C27.6807 14.203 28.3403 14.2774 28.9565 14.1038C29.5727 13.9302 30.0966 13.5225 30.4163 12.9679C30.4163 13.3456 30.4163 13.7265 30.4163 14.1105H31.8283C31.8283 12.5498 31.8283 10.9891 31.8283 9.46561C31.8053 9.03802 31.6401 8.63044 31.3591 8.30734C31.0781 7.98424 30.6972 7.76418 30.277 7.68206C29.0919 7.38661 27.8391 7.54567 26.7654 8.12794L26.719 8.08145ZM12.2456 5.70334C10.4434 7.05964 8.635 8.40663 6.82041 9.74435C5.96576 9.18696 5.09253 8.64814 4.22858 8.10005C4.22858 8.76891 4.22858 9.4378 4.22858 10.1067C5.10182 10.6269 5.94719 11.1843 6.80184 11.7324C8.90132 10.1903 10.9822 8.62959 13.0631 7.0875C12.8199 6.61348 12.5436 6.15719 12.2363 5.72194L12.2456 5.70334ZM18.8506 5.03451C18.8506 8.05676 18.8506 11.079 18.8506 14.1013H20.4391C20.4391 13.1723 20.4391 12.2433 20.4391 11.3144C21.8512 11.3144 23.384 11.435 24.6288 10.6361C25.1939 10.1954 25.597 9.57984 25.7752 8.88568C25.9534 8.19153 25.8965 7.45788 25.6135 6.79946C25.3889 6.33935 25.046 5.94722 24.6199 5.6632C24.1939 5.37917 23.7 5.21347 23.1889 5.18306C21.7373 5.0544 20.2792 5.01406 18.8227 5.06229L18.8506 5.03451ZM0.00175811 9.75365C0.0510544 7.97645 0.779682 6.28569 2.0377 5.0294C3.29571 3.77312 4.98741 3.04685 6.76467 3C8.3539 3.01259 9.89478 3.54799 11.1494 4.52353L9.8117 5.52678C9.06016 5.01699 8.1894 4.71053 7.28423 4.63727C6.37906 4.56401 5.47036 4.72649 4.64662 5.10878C3.69595 5.55808 2.89934 6.27844 2.35695 7.17924C1.81455 8.08004 1.55059 9.121 1.59824 10.1714C1.6459 11.2218 2.00305 12.2347 2.62478 13.0827C3.24652 13.9307 4.10508 14.5759 5.09252 14.9373C5.81024 15.1947 6.57572 15.2916 7.33495 15.221C8.09417 15.1504 8.82865 14.914 9.48657 14.5286C10.2972 14.0368 10.9653 13.3418 11.4248 12.5124C11.8843 11.6831 12.1192 10.7482 12.1063 9.80014C12.5893 9.41926 13.091 9.06618 13.574 8.6853C13.8259 10.1238 13.6213 11.6051 12.9888 12.9215C12.4904 13.9773 11.7319 14.8892 10.7846 15.5716C9.83731 16.2541 8.73217 16.6847 7.57287 16.8231C6.22273 16.9771 4.85828 16.7042 3.6712 16.0428C2.53838 15.4357 1.59586 14.5266 0.948151 13.4165C0.300446 12.3063 -0.0271287 11.0386 0.00175811 9.75365Z" fill="#219F38"/>
</svg>
