<svg width="39" height="20" viewBox="0 0 39 20" fill="none" xmlns="http://www.w3.org/2000/svg">
<g clip-path="url(#clip0_481_259)">
<path d="M38.1909 7.73471V12.6244H36.255V9.19437H34.391V12.6244H32.4551V7.73438H38.1909V7.73471Z" fill="black"/>
<path fill-rule="evenodd" clip-rule="evenodd" d="M28.4791 12.796C30.2121 12.796 31.499 11.8377 31.499 10.3849C31.499 8.97871 30.5495 8.06571 28.9627 8.06571C28.2304 8.06571 27.6261 8.29821 27.171 8.69938C27.2796 7.87021 28.057 7.26488 28.913 7.26488C29.1105 7.26488 30.5978 7.26205 30.5978 7.26205L31.4387 5.81055C31.4387 5.81055 29.5716 5.84888 28.7036 5.84888C26.7204 5.88005 25.3809 7.50588 25.3809 9.48055C25.3809 11.781 26.6873 12.796 28.4791 12.796ZM28.4896 9.35138C29.1331 9.35138 29.5792 9.73271 29.5792 10.3847C29.5792 10.9715 29.1828 11.455 28.4896 11.4564C27.8266 11.4564 27.3805 11.0084 27.3805 10.3947C27.3805 9.74255 27.8266 9.35138 28.4896 9.35138Z" fill="black"/>
<path d="M23.8044 10.9866C23.8044 10.9866 23.3473 11.2242 22.6645 11.2692C21.8795 11.2902 21.18 10.8431 21.18 10.0486C21.18 9.27356 21.7972 8.82939 22.6447 8.82939C23.1643 8.82939 23.8518 9.15422 23.8518 9.15422C23.8518 9.15422 24.3548 8.32172 24.6153 7.90539C24.1382 7.57922 23.5027 7.40039 22.7635 7.40039C20.898 7.40039 19.4531 8.49739 19.4531 10.0387C19.4531 11.5997 20.8112 12.6712 22.7635 12.6389C23.3092 12.6206 24.0621 12.4477 24.5209 12.1819L23.8044 10.9866Z" fill="black"/>
<path d="M0 4.35376L2.68541 8.68293V11.3236L0.00314148 15.6443L0 4.35376Z" fill="#5B57A2"/>
<path d="M10.3105 7.10627L12.8269 5.71527L17.9767 5.71094L10.3105 9.9466V7.10627Z" fill="#D90751"/>
<path d="M10.2966 4.32783L10.3108 10.0595L7.61914 8.56783V0L10.2966 4.32783Z" fill="#FAB718"/>
<path d="M17.977 5.71183L12.827 5.71617L10.2966 4.32783L7.61914 0L17.977 5.71183Z" fill="#ED6F26"/>
<path d="M10.3108 15.6641V12.8833L7.61914 11.4199L7.62062 19.9963L10.3108 15.6641Z" fill="#63B22F"/>
<path d="M12.8209 14.2899L2.68523 8.68293L0 4.35376L17.9661 14.2843L12.8209 14.2899Z" fill="#1487C9"/>
<path d="M7.62109 19.9994L10.3109 15.6672L12.821 14.2889L17.9662 14.2832L7.62109 19.9994Z" fill="#017F36"/>
<path d="M0.00390625 15.641L7.64196 11.421L5.07408 10L2.68618 11.3203L0.00390625 15.641Z" fill="#984995"/>
</g>
<defs>
<clipPath id="clip0_481_259">
<rect width="39" height="20" fill="white"/>
</clipPath>
</defs>
</svg>
