<svg width="41" height="41" viewBox="0 0 41 41" fill="none" xmlns="http://www.w3.org/2000/svg">
<circle cx="20.0402" cy="20.0412" r="20.0187" fill="white"/>
<path fill-rule="evenodd" clip-rule="evenodd" d="M14.2949 20.1232C14.2949 19.7529 14.5951 19.4526 14.9655 19.4526L26.8585 19.4526C27.2288 19.4526 27.529 19.7529 27.529 20.1232C27.529 20.4935 27.2288 20.7938 26.8585 20.7938L14.9655 20.7938C14.5951 20.7938 14.2949 20.4935 14.2949 20.1232Z" fill="black"/>
<path fill-rule="evenodd" clip-rule="evenodd" d="M20.4427 26.8515C20.7046 26.5896 20.7047 26.1651 20.4428 25.9032L14.654 20.1133L20.4428 14.3235C20.7047 14.0616 20.7046 13.637 20.4427 13.3752C20.1809 13.1133 19.7563 13.1134 19.4944 13.3753L13.2315 19.6392C12.9697 19.9011 12.9697 20.3256 13.2315 20.5875L19.4944 26.8514C19.7563 27.1133 20.1809 27.1133 20.4427 26.8515Z" fill="black"/>
</svg>
