<svg width="40" height="40" viewBox="0 0 40 40" fill="none" xmlns="http://www.w3.org/2000/svg">
<circle cx="20" cy="20" r="20" fill="#F0F0F0"/>
<path fill-rule="evenodd" clip-rule="evenodd" d="M14.2598 20.082C14.2598 19.712 14.5597 19.4121 14.9297 19.4121L26.8116 19.4121C27.1816 19.4121 27.4815 19.7121 27.4815 20.082C27.4815 20.452 27.1816 20.752 26.8116 20.752L14.9297 20.752C14.5597 20.752 14.2598 20.452 14.2598 20.082Z" fill="black"/>
<path fill-rule="evenodd" clip-rule="evenodd" d="M20.4007 26.8038C20.6623 26.5422 20.6624 26.118 20.4007 25.8564L14.6173 20.072L20.4007 14.2875C20.6624 14.0259 20.6623 13.6017 20.4007 13.3401C20.139 13.0785 19.7148 13.0785 19.4532 13.3402L13.1962 19.5983C12.9346 19.8599 12.9346 20.284 13.1962 20.5456L19.4532 26.8037C19.7148 27.0654 20.139 27.0654 20.4007 26.8038Z" fill="black"/>
</svg>
