<svg width="14" height="14" viewBox="0 0 14 14" fill="none" xmlns="http://www.w3.org/2000/svg">
<path fill-rule="evenodd" clip-rule="evenodd" d="M3.09917 1.02609C3.30062 0.824637 3.62724 0.824637 3.82869 1.02609L5.90177 3.09917C6.10322 3.30062 6.10322 3.62724 5.90177 3.82869C5.70032 4.03014 5.3737 4.03014 5.17225 3.82869L3.46393 2.12037L1.75561 3.82869C1.55416 4.03014 1.22754 4.03014 1.02609 3.82869C0.824637 3.62724 0.824637 3.30062 1.02609 3.09917L3.09917 1.02609Z" fill="#0C0C0C"/>
<path fill-rule="evenodd" clip-rule="evenodd" d="M3.46116 1.75391C3.74605 1.75391 3.97701 1.98486 3.97701 2.26975V11.9441C3.97701 12.229 3.74605 12.46 3.46116 12.46C3.17627 12.46 2.94531 12.229 2.94531 11.9441V2.26975C2.94531 1.98486 3.17627 1.75391 3.46116 1.75391Z" fill="#0C0C0C"/>
<path fill-rule="evenodd" clip-rule="evenodd" d="M7.93624 9.8171C8.1377 9.61565 8.46431 9.61565 8.66576 9.8171L10.3741 11.5254L12.0824 9.8171C12.2839 9.61565 12.6105 9.61565 12.8119 9.8171C13.0134 10.0186 13.0134 10.3452 12.8119 10.5466L10.7388 12.6197C10.5374 12.8212 10.2108 12.8212 10.0093 12.6197L7.93624 10.5466C7.73479 10.3452 7.73479 10.0186 7.93624 9.8171Z" fill="#0C0C0C"/>
<path fill-rule="evenodd" clip-rule="evenodd" d="M10.3752 1.75391C10.6601 1.75391 10.8911 1.98486 10.8911 2.26975V11.9441C10.8911 12.229 10.6601 12.46 10.3752 12.46C10.0903 12.46 9.85938 12.229 9.85938 11.9441V7.10694V2.26975C9.85938 1.98486 10.0903 1.75391 10.3752 1.75391Z" fill="#0C0C0C"/>
</svg>
