<svg width="54" height="25" viewBox="0 0 54 25" fill="none" xmlns="http://www.w3.org/2000/svg">
<rect y="0.327148" width="53.5196" height="24" rx="2" fill="#C1C6E5"/>
<path d="M35.252 13.9999V15.3983C35.252 15.9533 35.252 16.5066 35.252 17.0599C35.252 17.2455 35.1997 17.3214 34.9989 17.3197C34.223 17.3096 33.4464 17.3096 32.6693 17.3197C32.4719 17.3197 32.418 17.2539 32.418 17.0633C32.418 13.9077 32.418 10.7515 32.418 7.59472C32.418 7.39904 32.4838 7.33831 32.6744 7.34C33.4605 7.34 34.2466 7.35012 35.036 7.34C35.2351 7.34 35.3093 7.43952 35.3734 7.59134C35.8143 8.52364 36.2568 9.45593 36.701 10.3882C36.7508 10.506 36.8899 10.4435 36.8899 10.3157C36.8899 9.43006 36.8899 8.54276 36.8899 7.65713C36.8899 7.42434 36.9389 7.33156 37.1936 7.33662C37.9426 7.35349 38.6916 7.34843 39.4422 7.33662C39.6632 7.33662 39.7256 7.41422 39.7256 7.62677C39.7256 10.7644 39.7256 13.9026 39.7256 17.0414C39.7256 17.264 39.6463 17.3214 39.4355 17.318C38.6764 17.3079 37.9178 17.3079 37.1598 17.318C37.079 17.3284 36.9971 17.3103 36.9282 17.2669C36.8593 17.2235 36.8076 17.1575 36.782 17.0802C36.3619 16.1675 35.925 15.2634 35.4932 14.3558C35.4609 14.2867 35.4256 14.219 35.3903 14.1519C35.3542 14.0833 35.298 13.9384 35.2486 13.9982" fill="white"/>
<path d="M23.9259 10.4311C23.985 10.3299 24.0508 10.2304 24.1064 10.1258C24.5501 9.28235 24.9887 8.42372 25.4424 7.58027C25.4719 7.52346 25.5135 7.47379 25.5642 7.43474C25.6649 7.35715 25.8 7.35297 25.9272 7.3511C26.798 7.33825 27.6688 7.34422 28.5396 7.34579C28.631 7.35798 28.6718 7.45922 28.6306 7.54176C28.5442 7.71478 28.4628 7.87745 28.3793 8.03911C27.8103 9.13559 27.2373 10.2321 26.6604 11.3286C26.6117 11.4048 26.5818 11.4914 26.573 11.5814C26.5642 11.6714 26.5768 11.7622 26.6098 11.8464C27.2626 13.5789 27.8969 15.3181 28.5362 17.0556C28.5815 17.1765 28.4867 17.3133 28.3577 17.3181C28.3463 17.3185 28.335 17.3187 28.3237 17.3187C27.5089 17.3187 26.6941 17.3187 25.881 17.3187C25.8002 17.3298 25.7182 17.3096 25.6518 17.2622C25.5206 17.1688 25.4966 16.9878 25.4422 16.8363C25.2575 16.3219 25.0653 15.8081 24.8756 15.2995C24.8345 15.1843 24.6685 15.1859 24.6119 15.2944L24.1334 16.2121C23.9765 16.5141 23.8348 16.8262 23.6577 17.1163C23.6222 17.1686 23.5761 17.2128 23.5223 17.2459C23.4685 17.2791 23.4083 17.3004 23.3456 17.3086C22.6709 17.3272 22.013 17.3086 21.3467 17.3238C21.0936 17.3238 21.0413 17.2445 21.043 17.0084C21.0514 14.4611 21.043 11.9139 21.043 9.3667C21.043 8.77628 21.043 8.18587 21.043 7.59545C21.043 7.39977 21.1088 7.33904 21.2994 7.34242C22.0568 7.34242 22.8176 7.35254 23.575 7.34242C23.796 7.34242 23.8618 7.4099 23.8584 7.62919C23.8483 8.50469 23.8584 9.38188 23.8584 10.2591C23.8584 10.2913 23.8584 10.3241 23.8608 10.3568C23.8635 10.3943 23.8914 10.4242 23.9276 10.4345" fill="white"/>
<path d="M42.8093 12.2959C42.8093 12.527 42.8177 12.7581 42.8093 12.9875C42.8009 13.2169 42.9122 13.276 43.118 13.2136C43.3051 13.1435 43.466 13.0175 43.5789 12.8527C43.6918 12.6879 43.7512 12.4923 43.7489 12.2925C43.7403 12.0881 43.6653 11.8921 43.5353 11.7342C43.4054 11.5762 43.2275 11.4649 43.0286 11.417C42.8785 11.3833 42.816 11.4339 42.8144 11.5756C42.8144 11.8168 42.8144 12.0563 42.8144 12.2959M40.252 12.3043C40.252 10.7541 40.252 9.20211 40.252 7.65185C40.252 7.40557 40.3211 7.33303 40.5657 7.33978C41.3586 7.36171 42.1582 7.29254 42.9274 7.54052C44.761 8.12419 45.9638 9.34044 46.3838 11.2045C46.9776 13.7972 45.5792 16.2078 43.059 17.0766C42.337 17.3245 41.588 17.3262 40.8373 17.3178C40.2536 17.3178 40.2536 17.3178 40.2536 16.7375V12.3043" fill="white"/>
<path d="M31.8791 17.3009H29.3966C29.2267 17.3009 29.0721 17.1637 29.0721 16.9938C29.0721 13.8843 29.0721 10.7754 29.0721 7.66697C29.0721 7.42068 29.1295 7.32959 29.3927 7.32959C30.1231 7.34646 30.8535 7.34309 31.5856 7.32959C31.8167 7.32959 31.9112 7.37851 31.9112 7.63492C31.9033 10.7602 31.9033 13.8871 31.9112 17.0158C31.9112 17.0967 31.8994 17.1845 31.891 17.2924" fill="white"/>
<path d="M9.94701 14.9486C9.74121 15.011 9.6265 14.9671 9.63831 14.7225C9.65012 14.4779 9.63831 14.262 9.63831 14.0309C9.63831 13.7914 9.63831 13.5518 9.63831 13.3106C9.63831 13.1689 9.70241 13.1183 9.85255 13.152C10.0521 13.1989 10.2309 13.3095 10.3619 13.4672C10.4928 13.625 10.5686 13.8211 10.5779 14.0259C10.5802 14.2256 10.5208 14.4212 10.4079 14.586C10.2951 14.7508 10.1341 14.8769 9.94701 14.9469M9.64843 9.7715C9.64843 9.62642 9.64843 9.48304 9.64843 9.33797C9.64843 9.25362 9.68554 9.22326 9.77664 9.24181C9.89623 9.2712 10.0031 9.33851 10.0812 9.43369C10.1555 9.52408 10.2 9.63498 10.209 9.75129C10.21 9.76362 10.2102 9.776 10.2102 9.78837C10.211 9.79453 10.211 9.80076 10.2102 9.80692C10.2029 9.91856 10.1636 10.0257 10.0968 10.1155C10.0301 10.2053 9.9388 10.2739 9.83399 10.313C9.71085 10.3518 9.64168 10.3248 9.64843 10.178C9.65518 10.0313 9.64843 9.8997 9.64843 9.76138M15.9676 10.4277C15.9676 10.227 16.0249 10.1359 16.2493 10.1409C16.9341 10.1544 17.619 10.1409 18.3039 10.1494C18.5283 10.1494 18.6126 10.0886 18.6092 9.85416C18.5974 9.1153 18.5957 8.37643 18.6092 7.63926C18.6092 7.3896 18.5249 7.32549 18.287 7.32718C16.6777 7.33618 15.0679 7.33618 13.4575 7.32718C13.196 7.32718 13.1336 7.40815 13.1353 7.66456C13.1454 9.40881 13.1353 11.1548 13.1353 12.8939V13.1719C13.1353 13.1919 13.1215 13.2092 13.102 13.2138C13.0799 13.2189 13.0576 13.2059 13.0508 13.1843C12.799 12.3873 12.2848 11.8319 11.5014 11.4768C11.4389 11.4484 11.4328 11.358 11.4888 11.3184C12.2294 10.7145 12.501 9.93175 12.2547 9.02083C12.154 8.57216 11.9089 8.16893 11.5569 7.87304C11.205 7.57714 10.7656 7.40493 10.3063 7.38285C9.24523 7.29051 8.17076 7.34856 7.10289 7.34246C7.0928 7.3424 7.0827 7.34334 7.07297 7.34597C7.0257 7.35875 7 7.40632 7 7.45528V17.1989C7 17.2491 7.02942 17.2965 7.07864 17.3065C7.08578 17.308 7.09307 17.3086 7.10035 17.3086C8.12405 17.3089 9.15105 17.3606 10.1697 17.29C10.7511 17.2679 11.3141 17.0801 11.7923 16.7486C12.2705 16.4172 12.644 15.9559 12.8687 15.4192C12.937 15.2683 12.9963 15.1145 13.0594 14.9618C13.0662 14.9453 13.0838 14.9359 13.1013 14.9393C13.1191 14.9427 13.1319 14.9583 13.1319 14.9763V17.1418C13.1319 17.2248 13.1861 17.3004 13.2685 17.3102C14.9723 17.3102 16.6744 17.3102 18.3764 17.3102C18.5789 17.3102 18.5957 17.2006 18.5957 17.0454C18.5957 16.288 18.5957 15.5272 18.5957 14.7748C18.5957 14.5572 18.5215 14.483 18.3056 14.4864C17.6764 14.4864 17.0472 14.4864 16.418 14.4864C15.9456 14.4864 15.9574 14.4864 15.9507 14.0124C15.9507 13.7627 16.0452 13.6969 16.2881 13.7003C16.9628 13.7121 17.6376 13.7003 18.3123 13.7087C18.5283 13.7087 18.6042 13.6362 18.6008 13.4186C18.6008 12.6814 18.589 11.9425 18.6008 11.2037C18.6008 10.9557 18.5165 10.8865 18.2786 10.8916C17.5937 10.9051 16.9088 10.8916 16.224 10.8916C16.0384 10.8916 15.9608 10.8444 15.9608 10.6419L15.9676 10.4277Z" fill="white"/>
</svg>
