<svg width="68" height="25" viewBox="0 0 68 25" fill="none" xmlns="http://www.w3.org/2000/svg">
<rect x="0.519653" y="0.327148" width="67.2901" height="24" rx="2" fill="#A7CFBC"/>
<path d="M15.7383 9.28868C15.9207 9.36076 16.0865 9.46918 16.2256 9.60734C16.3648 9.7455 16.4744 9.91052 16.5477 10.0924C16.6333 10.2976 16.6764 10.518 16.6744 10.7404V11.964C16.6744 12.3868 16.5688 12.7258 16.3578 12.9809C16.1569 13.23 15.8797 13.4062 15.5688 13.4823L16.6891 16.3271H15.0827L13.8296 13.5266H9.09893V16.3271H7.51965V9.17822H15.1851C15.3749 9.17892 15.5628 9.21643 15.7383 9.28868ZM9.09893 11.964H14.5371C14.6735 11.9669 14.8082 11.934 14.928 11.8687C15.041 11.8053 15.0975 11.6751 15.0975 11.4783V11.316C15.0975 11.1097 15.0459 10.9622 14.9428 10.8737C14.8396 10.7851 14.6995 10.7407 14.5223 10.7404H9.09893V11.964Z" fill="white"/>
<path d="M23.747 14.7645L22.9795 16.3271H18.1407V9.17822H26.6603L25.8509 10.7408H19.7176V11.964H25.2144L24.405 13.5266H19.7176V14.7645H23.747Z" fill="white"/>
<path d="M35.3371 11.8983H29.2214L31.0169 8.45981H35.3371V11.8983ZM36.9878 7.03337C36.964 6.99671 36.8973 6.83388 36.7383 6.82197C36.7164 6.82197 36.7069 6.81007 36.7088 6.80912H30.4203C30.3635 6.80826 30.3075 6.82227 30.2578 6.84975C30.2081 6.87723 30.1665 6.91722 30.137 6.96576C30.1046 7.02242 30.0218 7.17477 30.0218 7.17477L25.2754 16.3171H26.9151L26.9242 16.3005V16.3171L27.067 16.0429L28.4316 13.579H35.3352V16.3171H36.9878V7.03337Z" fill="white"/>
<path d="M38.6738 16.2883V14.9585H45.8913V13.4531H39.1171C39.0727 13.4516 39.0292 13.44 38.99 13.4193C38.9282 13.3898 38.871 13.3516 38.82 13.306C38.7727 13.2646 38.7328 13.2155 38.7019 13.1607C38.6886 13.1407 38.6791 13.1185 38.6738 13.095V9.68034C38.6787 9.65695 38.6879 9.63468 38.701 9.61464C38.7326 9.56111 38.7724 9.51291 38.819 9.4718C38.8704 9.42594 38.928 9.38748 38.99 9.35753C39.0293 9.33691 39.0727 9.32536 39.1171 9.32373H47.5224V10.6502H40.2955V12.1452H47.0796C47.1239 12.1468 47.1673 12.158 47.2068 12.178C47.2691 12.2073 47.3267 12.2459 47.3777 12.2923C47.4244 12.3334 47.4644 12.3816 47.4962 12.4351C47.5089 12.455 47.5179 12.4769 47.5229 12.4999V15.9279C47.5177 15.9513 47.5084 15.9736 47.4953 15.9936C47.4639 16.0472 47.4242 16.0954 47.3777 16.1365C47.3266 16.1824 47.269 16.2206 47.2068 16.2498C47.1675 16.2705 47.124 16.2821 47.0796 16.2836L38.6738 16.2883Z" fill="white"/>
<path d="M57.2964 9.33132L56.655 9.32275V12.1342H51.0583V9.32275H49.4376V16.2878H51.0583V13.4645H56.655V16.2878H58.2857L58.2867 10.0512" fill="white"/>
<path d="M60.7631 8.23303L60.8097 8.20113L60.7631 8.1997L59.0395 8.16828L58.8872 8.16257L58.3096 6.37714L58.2954 6.32715L58.2739 6.39142L57.7969 7.77453L57.6631 8.13924L57.654 8.1659L55.7853 8.1997L57.2574 9.31048L56.6804 11.0802L58.2387 10.0347L59.7561 11.1397L59.8323 11.1935L59.8123 11.1254L59.2647 9.33L59.648 9.041L60.7631 8.23303Z" fill="white"/>
</svg>
